<svg width="23" height="22" viewBox="0 0 23 22" fill="none" xmlns="http://www.w3.org/2000/svg">
<path d="M20.791 5.28718H16.6279C16.3172 2.87188 14.2484 1 11.75 1C9.2516 1 7.18409 2.87188 6.87211 5.28718H2.70896C2.17961 5.28718 1.75 5.71679 1.75 6.24613V20.041C1.75 20.5704 2.17961 21 2.70896 21H20.791C21.3204 21 21.75 20.5704 21.75 20.041V6.24613C21.75 5.71679 21.3204 5.28718 20.791 5.28718ZM11.75 2.91791C13.1884 2.91791 14.3929 3.93441 14.6844 5.28718H8.81559C9.10712 3.93441 10.3116 2.91791 11.75 2.91791ZM19.8321 19.0821H3.66791V7.20509H6.82991V9.48357C6.82991 10.0129 7.25953 10.4425 7.78887 10.4425C8.31821 10.4425 8.74783 10.0129 8.74783 9.48357V7.20509H14.7522V9.40813C14.7522 9.93748 15.1818 10.3671 15.7111 10.3671C16.2405 10.3671 16.6701 9.93748 16.6701 9.40813V7.20509H19.8321V19.0821Z" fill="#060707"/>
</svg>
