<svg width="15" height="15" viewBox="0 0 15 15" fill="none" xmlns="http://www.w3.org/2000/svg">
<path d="M7.5 10L6.79289 10.7071L7.5 11.4142L8.20711 10.7071L7.5 10ZM8.5 2.5C8.5 1.94772 8.05229 1.5 7.5 1.5C6.94772 1.5 6.5 1.94771 6.5 2.5L8.5 2.5ZM3.04289 6.95711L6.79289 10.7071L8.20711 9.29289L4.45711 5.54289L3.04289 6.95711ZM8.20711 10.7071L11.9571 6.95711L10.5429 5.54289L6.79289 9.29289L8.20711 10.7071ZM8.5 10L8.5 2.5L6.5 2.5L6.5 10L8.5 10Z" fill="black"/>
<path d="M3.125 13.125L11.875 13.125" stroke="#33363F" stroke-width="2"/>
</svg>
