<svg width="15" height="15" viewBox="0 0 15 15" fill="none" xmlns="http://www.w3.org/2000/svg">
<path fill-rule="evenodd" clip-rule="evenodd" d="M7.125 1.25V3.625L7.12499 3.67941C7.12491 4.10348 7.12483 4.5156 7.17053 4.85552C7.22205 5.23872 7.34757 5.676 7.71079 6.03921C8.074 6.40243 8.51128 6.52795 8.89448 6.57947C9.23439 6.62517 9.64651 6.62509 10.0706 6.62501H10.0706L10.125 6.625H12.5V10C12.5 11.7678 12.5 12.6517 11.9508 13.2008C11.4017 13.75 10.5178 13.75 8.75 13.75H6.25C4.48223 13.75 3.59835 13.75 3.04917 13.2008C2.5 12.6517 2.5 11.7678 2.5 10V5C2.5 3.23223 2.5 2.34835 3.04917 1.79917C3.59835 1.25 4.48223 1.25 6.25 1.25H7.125ZM9.125 1.2843V3.625C9.125 4.12467 9.12712 4.39883 9.15269 4.58902L9.15369 4.59631L9.16098 4.59731C9.35117 4.62288 9.62533 4.625 10.125 4.625H12.4657C12.4518 4.549 12.4323 4.48063 12.4049 4.41441C12.3097 4.1847 12.1291 4.00406 11.7678 3.64277L11.7678 3.64277L10.1072 1.98223C9.74595 1.62095 9.5653 1.4403 9.33559 1.34515C9.26937 1.31772 9.201 1.2982 9.125 1.2843Z" fill="#222222"/>
</svg>
