<svg width="16" height="13" viewBox="0 0 16 13" fill="none" xmlns="http://www.w3.org/2000/svg">
<path d="M2.9672 7.27198L7.60227 11.6261C7.65412 11.6748 7.68004 11.6992 7.70472 11.7173C7.88058 11.846 8.11958 11.846 8.29544 11.7173C8.32013 11.6992 8.34605 11.6748 8.39789 11.6261L13.033 7.27198C14.3371 6.0469 14.4955 4.0309 13.3986 2.61722L13.1924 2.3514C11.8803 0.660223 9.2465 0.943847 8.32453 2.8756C8.19429 3.14848 7.80587 3.14848 7.67564 2.8756C6.75366 0.943847 4.1199 0.660224 2.80778 2.3514L2.60154 2.61722C1.50471 4.0309 1.66308 6.0469 2.9672 7.27198Z" fill="#222222" stroke="#222222" stroke-width="2"/>
</svg>
