<svg width="23" height="22" viewBox="0 0 23 22" fill="none" xmlns="http://www.w3.org/2000/svg">
<path d="M20.916 21H2.83396C2.30461 21 1.875 20.5704 1.875 20.041C1.875 14.5264 6.36036 10.041 11.875 10.041C17.3896 10.041 21.875 14.5264 21.875 20.041C21.875 20.5704 21.4454 21 20.916 21ZM3.84917 19.0821H19.9008C19.4252 15.0762 16.0075 11.959 11.875 11.959C7.74254 11.959 4.32481 15.0762 3.84917 19.0821Z" fill="#060707"/>
<path d="M11.875 10.9373C9.13494 10.9373 6.90633 8.70873 6.90633 5.96867C6.90633 3.22862 9.13494 1 11.875 1C14.6151 1 16.8437 3.22862 16.8437 5.96867C16.8437 8.70873 14.6151 10.9373 11.875 10.9373ZM11.875 2.91791C10.1924 2.91791 8.82424 4.28603 8.82424 5.96867C8.82424 7.65132 10.1924 9.01943 11.875 9.01943C13.5576 9.01943 14.9258 7.65132 14.9258 5.96867C14.9258 4.28603 13.5576 2.91791 11.875 2.91791Z" fill="#060707"/>
</svg>
