<svg width="30" height="30" viewBox="0 0 30 30" fill="none" xmlns="http://www.w3.org/2000/svg">
<path d="M27.2903 30L19.9355 22.6452C18.9677 23.4194 17.8548 24.0323 16.5968 24.4839C15.3387 24.9355 14 25.1613 12.5806 25.1613C9.06452 25.1613 6.08903 23.9432 3.65419 21.5071C1.21935 19.071 0.00129032 16.0955 0 12.5806C0 9.06452 1.21806 6.08903 3.65419 3.65419C6.09032 1.21936 9.06581 0.00129032 12.5806 0C16.0968 0 19.0723 1.21806 21.5071 3.65419C23.9419 6.09032 25.16 9.06581 25.1613 12.5806C25.1613 14 24.9355 15.3387 24.4839 16.5968C24.0323 17.8548 23.4194 18.9677 22.6452 19.9355L30 27.2903L27.2903 30ZM12.5806 21.2903C15 21.2903 17.0568 20.4432 18.751 18.749C20.4452 17.0548 21.2916 14.9987 21.2903 12.5806C21.2903 10.1613 20.4432 8.10452 18.749 6.41032C17.0548 4.71613 14.9987 3.86968 12.5806 3.87097C10.1613 3.87097 8.10452 4.71807 6.41032 6.41226C4.71613 8.10645 3.86968 10.1626 3.87097 12.5806C3.87097 15 4.71806 17.0568 6.41226 18.751C8.10645 20.4452 10.1626 21.2916 12.5806 21.2903Z" fill="#B3B3B3"/>
</svg>
