<svg width="22" height="22" viewBox="0 0 22 22" fill="none" xmlns="http://www.w3.org/2000/svg">
<path d="M20.719 19.3637L16.9726 15.6173C18.218 14.0753 18.966 12.1151 18.966 9.98365C18.9673 5.03024 14.9371 1 9.98365 1C5.03024 1 1 5.03024 1 9.98365C1 14.9371 5.03024 18.9673 9.98365 18.9673C12.1151 18.9673 14.0753 18.2193 15.6173 16.9739L19.3637 20.7203C19.5504 20.907 19.7959 21.0016 20.0413 21.0016C20.2868 21.0016 20.5323 20.9083 20.719 20.7203C21.0937 20.3457 21.0937 19.7383 20.719 19.3637ZM2.91794 9.98365C2.91794 6.08767 6.08767 2.91794 9.98365 2.91794C13.8796 2.91794 17.0494 6.08767 17.0494 9.98365C17.0494 13.8796 13.8796 17.0494 9.98365 17.0494C6.08767 17.0494 2.91794 13.8796 2.91794 9.98365Z" fill="#060707"/>
</svg>
